PathFileType	4	(X/Y/Z)	Patient4_TMGait_0pt2_03_left_17.trc.trc
DataRate	CameraRate	NumFrames	NumMarkers	Units	OrigDataRate	OrigDataStartFrame	OrigNumFrames
47.138047138047	47.138047138047	6	33	mm	47.138047138047	106	       141
Frame#	Time	Sacral			L.Shoulder			Chest			R.Shoulder			Neck			R.ASIS			L.ASIS			R.Thigh.Superior			R.Thigh.Lateral			R.Thigh.Inferior			R.Patella			L.Thigh.Superior			L.Thigh.Lateral			L.Thigh.Inferior			L.Patella			L.Shank.Superior			L.Shank.Lateral			L.Shank.Inferior			R.Shank.Superior			R.Shank.Lateral			R.Shank.Inferior			R.Heel			R.Midfoot.Superior			R.Midfoot.Lateral			R.Toe			L.Heel			L.Midfoot.Lateral			L.Midfoot.Superior			L.Toe			L.Elbow			L.Wrist			R.Elbow			R.Wrist			
		X1	Y1	Z1	X2	Y2	Z2	X3	Y3	Z3	X4	Y4	Z4	X5	Y5	Z5	X6	Y6	Z6	X7	Y7	Z7	X8	Y8	Z8	X9	Y9	Z9	X10	Y10	Z10	X11	Y11	Z11	X12	Y12	Z12	X13	Y13	Z13	X14	Y14	Z14	X15	Y15	Z15	X16	Y16	Z16	X17	Y17	Z17	X18	Y18	Z18	X19	Y19	Z19	X20	Y20	Z20	X21	Y21	Z21	X22	Y22	Z22	X23	Y23	Z23	X24	Y24	Z24	X25	Y25	Z25	X26	Y26	Z26	X27	Y27	Z27	X28	Y28	Z28	X29	Y29	Z29	X30	Y30	Z30	X31	Y31	Z31	X32	Y32	Z32	X33	Y33	Z33	

106	37.647500000000	778.485207821612	994.883850101225	606.549661010485	948.396985071013	1417.154433467491	406.657381757716	1065.449971822751	1345.053022869695	554.335413672014	1008.234507086709	1419.303099159002	737.841974416344	945.386551228840	1480.648795250644	565.218838451586	1018.942197284352	922.559604036394	692.297805859407	970.626868423735	953.755156621378	424.722360148428	1060.292647290605	723.318681013296	639.125786899707	989.248013838839	606.978160236364	696.156982194373	1056.317446275336	563.188132432728	601.714340090463	1057.483346454026	466.490306786914	600.803505080424	1062.339273857197	777.871593577121	445.991416055897	1014.765647557178	640.472712521385	358.629060623822	1128.784145109373	591.262154572899	419.653112341633	1145.699287471049	503.992865607532	404.104083434259	1083.845880065219	434.846595957105	389.142207183203	946.191533655221	382.950708847187	338.807521014167	950.653132504480	247.203327358773	377.601082226594	1006.774043449448	381.907583207439	607.195948186945	922.375265313384	290.962850815622	673.344460015577	932.042281227494	195.089627987975	602.471298609956	764.915485834830	47.827778378636	580.442307280119	938.355041383231	95.843563803245	608.817631667060	850.519109635624	38.533699923608	651.352371398878	1058.228804823059	39.555196346268	633.999458195628	771.440274359294	155.562477273967	412.443233782950	829.991905232466	128.375451336437	325.096158661947	934.014543198441	147.134110041494	344.328037875342	1023.428704590936	50.600464542472	298.793992079572	840.320112274198	1075.519444243581	307.245279034593	821.013160502762	815.174629520471	324.137980188297	1087.003037442317	1078.154595476013	859.942241724116	1307.249341775075	944.200883466257	828.002198074103	
107	37.668714285714	777.427500661493	996.223578181985	608.768217354877	943.540508073375	1419.308346559244	408.387816871061	1063.295718712600	1346.581573232780	553.690595449895	1009.279861470986	1420.434677641752	738.249273503861	943.466770761429	1481.948823959541	566.867580579856	1018.405222171553	923.208737637899	691.838789543817	967.835673016833	955.782750328972	424.853397399440	1057.205234045592	723.219463479767	638.962892190678	985.459700844099	607.582379014492	696.694436402824	1051.518511437791	563.132629833039	601.971757332127	1051.895747098671	466.872987652210	601.104662850828	1060.046756159985	780.688645990711	446.263461079641	1013.351315683414	642.815673860302	358.941566064992	1127.394727726138	594.553343800879	419.692291627409	1145.862709391664	508.599574023696	404.296503990888	1087.125577720329	438.260457945437	388.837308101322	952.861491116949	380.011797363890	338.086399293570	964.342049798746	244.771769254419	376.286119361255	1001.455641058037	382.351202300492	607.590734662364	917.569843989681	291.085984354858	673.900364939674	927.296788431351	195.361724523076	602.815623194577	760.545507473528	47.796018083281	580.673637679042	933.960824123284	95.745958622707	608.871124758544	846.203381646182	38.435059330656	651.534040134951	1053.906819940824	39.557885277958	633.992526666272	790.827656177048	144.339713626598	410.990958576040	850.352574482396	120.585200866414	323.381334765330	953.043197197099	144.148220069613	342.519193799975	1046.726628024153	52.582581678856	296.362105149362	823.264735865752	1082.733311270719	309.943466985180	793.851524645416	823.771765756375	332.102634010364	1103.135422052001	1083.852643618739	858.763276737507	1333.569297450194	969.875553566640	821.603796988872	
108	37.689928571429	776.528922342728	998.090364475001	610.723782913881	938.906702129079	1422.013615472856	410.007823298976	1061.286010620635	1348.566115904114	552.865781516572	1010.447037666622	1422.038300290504	738.374181666595	941.653829768340	1483.652443002381	568.350685496648	1017.909966441834	924.220395010565	691.084090234014	965.169361718002	958.237738794819	424.641739024807	1053.636184889429	723.331179276282	638.693396152967	980.958272586066	608.578113472906	697.307829405382	1045.870158004218	563.276816055493	602.376935951802	1045.304694780653	467.602085818821	601.662678494987	1057.070924321381	783.083994910120	445.907092751785	1010.300121535147	644.938376185408	358.789945963700	1124.151491022775	597.141892980936	419.060080969287	1144.000526455423	512.880354529984	403.963530508949	1088.954067685324	441.487831403605	388.047248487299	959.134331395853	375.922338633296	336.484401880165	978.641076299199	241.669731937728	374.288062771915	995.365892318116	383.137696402811	608.210630758162	912.139913350282	291.379903208533	674.596930033671	922.220582681162	195.824796945328	603.268434569986	756.145252886897	47.746063640699	580.906936927779	929.536357728741	95.642035263406	608.933691807611	841.868067965846	38.323510529717	651.714450430883	1049.567887096094	39.574541554780	633.980817388181	811.986450321472	131.621034944412	408.565504528794	872.759910459399	111.337553159487	320.953533577045	973.776914175356	140.300711422495	340.127065301748	1072.193628760940	54.280497850139	293.973623729790	807.321648060373	1090.809869043126	312.630878050613	769.752780957991	833.451884516298	340.373299973608	1118.542720750190	1090.715183439759	857.212230385824	1357.052811848818	997.192202848022	814.751868758791	
109	37.711142857143	775.778533962672	1000.310219990899	612.385968815609	934.530469574421	1425.085500046078	411.480107434686	1059.420405780041	1350.842147489857	551.870648472832	1011.687209597767	1423.958520545362	738.220797731671	939.956344496417	1485.607538754050	569.652939415679	1017.438829642342	925.482836325227	690.081189118948	962.653671408643	960.931446808711	424.129117970050	1049.710137694231	723.599386570614	638.353543816687	975.913856976098	609.865863335226	697.982792393285	1039.586955357745	563.573760132338	602.918008699358	1037.955190466000	468.594962963956	602.447646070706	1053.528162879003	784.939472465423	445.024486569101	1005.884233768785	646.734247535393	358.192220453516	1119.338489010482	598.953651641544	417.899444469171	1140.391953866382	516.705268498657	403.205373669827	1089.487144253212	444.456835264369	386.862373467613	965.095901314734	370.969037081629	334.114455100013	993.291556211619	238.248184470978	371.747885911738	988.712087630926	384.180968609931	609.020070396679	906.231024371359	291.809834635614	675.398320164477	916.906185159419	196.433706895342	603.803800716796	751.728354022729	47.688556668180	581.130372911916	925.101671781499	95.541888416814	609.010086731682	837.520742696560	38.209573025019	651.884847583358	1045.218852695157	39.599405026246	633.965917812250	834.471544393368	118.308348847257	405.345432197787	896.694451664594	101.334346925447	317.996607868585	995.743877673228	135.986371449144	337.310655665398	1099.055909868823	55.764587732811	291.815090843879	792.604881427881	1099.381030669068	315.361230090198	748.566953333800	843.668630381622	348.801560900041	1133.145693863393	1098.477714912371	855.318042415163	1377.588737556317	1025.576565133770	807.541929622373	
110	37.732357142857	775.156804514786	1002.680493843333	613.714746171815	930.441004055690	1428.306952302719	412.756777048129	1057.690444148958	1353.223982931551	550.714834063006	1012.932480962708	1426.017262396586	737.794227896502	938.374352643817	1487.642059484401	570.748461307996	1016.974791039007	926.865671445022	688.889779907204	960.327386277971	963.650683734122	423.367317238704	1045.576709683131	723.955770686345	637.975240485364	970.530130423782	611.325022289860	698.692346512112	1032.923015900552	563.960976797281	603.568042046693	1030.137744708842	469.746753652460	603.409759548276	1049.560349872951	786.155877211398	443.728234563837	1000.431244157869	648.113689042915	357.183391610391	1113.311562357129	599.960270117924	416.354851876885	1135.380522428484	519.965100841390	402.124660457163	1088.918121482317	447.101132559129	385.382609588858	970.782292202601	365.467820879231	331.156161502004	1007.959582502724	234.836900563359	368.853561836853	981.733807310382	385.373743444255	609.966521901363	900.015771105638	292.327462306718	676.258169646017	911.459141531992	197.128893982453	604.389278754953	747.308147810034	47.628986302196	581.332365755857	920.678478846528	95.458526415188	609.109527979134	833.168753312749	38.100810182688	652.037227638697	1040.866328956960	39.627917535807	633.949822151646	857.693664340845	105.244342369320	401.603823289110	921.480197084521	91.258716519841	314.759018988482	1018.335440381126	131.600506973699	334.271372033649	1126.427600091813	57.138662546120	290.046769303801	779.195485843360	1108.037577730478	318.158915485184	730.080663273993	853.907131631317	357.224525300662	1146.874448890671	1106.843110462367	853.096295195149	1395.158937457134	1054.440999803325	800.070084533539	
111	37.753571428571	774.637668867094	1004.991625870325	614.669797523111	926.659519931264	1431.450486946712	413.782144344208	1056.081605935696	1355.524701538358	549.405955269205	1014.104387828432	1428.033508810871	737.099738379119	936.899039371282	1489.583624053252	571.600823209939	1016.505872713057	928.235911102999	687.574054147865	958.232055926504	966.181430594490	422.411454789464	1041.399313721509	724.327048660486	637.581026456140	965.027612715997	612.827058086575	699.398174547113	1026.150148077738	564.368026945763	604.286051156563	1022.162862680174	470.940313669856	604.482288340971	1045.332057631099	786.669892717996	442.127932246359	994.301289080151	649.008627380361	355.818452464758	1106.478503268044	600.181438915100	414.555542274303	1129.349635284215	522.574746839688	400.818638573464	1087.463628786345	449.357039083044	383.710614546620	976.170045841189	359.728505946086	327.836318733321	1022.251730368468	231.700086134233	365.819665355820	974.681002784891	386.599393326267	610.984910662309	893.678490723879	292.876826288677	677.123822665961	905.987628986760	197.843265438744	604.988559488798	742.895853595511	47.567854063855	581.502840751237	916.287309596495	95.405704626186	609.243294141981	828.818017666112	38.001251580571	652.164803628977	1036.515967079093	39.656731025994	633.934599806542	880.945677580000	93.121182719341	397.665510281449	946.321619328964	81.701555094660	311.516846969565	1040.836809982512	127.489995421785	331.231891900377	1153.369197835994	58.516163992374	288.787862335051	767.150250840713	1116.359199613981	321.015260124973	714.051468943963	863.698833200948	365.469802408177	1159.663924226524	1115.501762661810	850.551044389316	1409.823734087602	1083.210809336746	792.431185896147	
